<svg id="svg1694" xmlns="http://www.w3.org/2000/svg" viewBox="0 0 289.94 37.73">
  <defs>
    <style>.cls-1{isolation:isolate;}.cls-2{fill:#4fcbe9;}.cls-3{fill:#16519f;}</style>
  </defs>
  <title>TOC Logo1</title>
  <g id="text2007" class="cls-1">
    <g class="cls-1">
      <path class="cls-2" d="M22.19,18.49h-7v29H9.16v-29h-7v-6.1h20Z" transform="translate(-2.18 -11.07)"/>
      <path class="cls-2"
            d="M28.91,16.6a18.14,18.14,0,0,1,13.33-5.53A18.15,18.15,0,0,1,55.58,16.6a18.17,18.17,0,0,1,5.53,13.34,18.17,18.17,0,0,1-5.53,13.34,18.19,18.19,0,0,1-13.34,5.53,18.18,18.18,0,0,1-13.33-5.53,18.17,18.17,0,0,1-5.53-13.34A18.17,18.17,0,0,1,28.91,16.6Zm22.4,4.28a12.83,12.83,0,0,0-18.13,0,12.34,12.34,0,0,0-3.75,9.06A12.8,12.8,0,0,0,42.24,42.75,12.8,12.8,0,0,0,55.06,29.94,12.34,12.34,0,0,0,51.31,20.88Z"
            transform="translate(-2.18 -11.07)"/>
      <path class="cls-3"
            d="M91.74,39,96,43.28a18.86,18.86,0,0,1-26.68,0,18.17,18.17,0,0,1-5.53-13.34A18.17,18.17,0,0,1,69.32,16.6,18.86,18.86,0,0,1,96,16.6l-4.26,4.26a12.54,12.54,0,0,0-9.08-3.73A12.82,12.82,0,0,0,69.84,29.94,12.82,12.82,0,0,0,82.66,42.75,12.54,12.54,0,0,0,91.74,39Z"
            transform="translate(-2.18 -11.07)"/>
      <path class="cls-3"
            d="M128.6,12.39V34.11a14.68,14.68,0,1,1-29.36,0V12.39h6.06V34.11a8.62,8.62,0,1,0,17.24,0V12.39Z"
            transform="translate(-2.18 -11.07)"/>
      <path class="cls-3"
            d="M175.63,47.49h-6.27l-4.61-19.66L153,48.81l-11.72-21-4.61,19.66h-6.27l8.69-36.42L153,36.21l14.12-25.14Z"
            transform="translate(-2.18 -11.07)"/>
      <path class="cls-3"
            d="M206.7,12.39V34.11a14.68,14.68,0,1,1-29.36,0V12.39h6.06V34.11a8.62,8.62,0,1,0,17.24,0V12.39Z"
            transform="translate(-2.18 -11.07)"/>
      <path class="cls-3" d="M218.19,41.39h14.66v6.1H212.1V12.39h6.09Z" transform="translate(-2.18 -11.07)"/>
      <path class="cls-3"
            d="M265.5,12.39V34.11a14.18,14.18,0,0,1-4.31,10.4,14.67,14.67,0,0,1-20.75,0,14.17,14.17,0,0,1-4.3-10.4V12.39h6.06V34.11a8.62,8.62,0,1,0,17.24,0V12.39Z"
            transform="translate(-2.18 -11.07)"/>
      <path class="cls-3"
            d="M280,32.18c-1.08-.3-1.9-.54-2.46-.73s-1.24-.47-2-.83a7.8,7.8,0,0,1-2.06-1.34,9.53,9.53,0,0,1-1.56-1.89,10.3,10.3,0,0,1-1.67-5.7,10.23,10.23,0,0,1,3.1-7.5,10.13,10.13,0,0,1,7.48-3.12,10.33,10.33,0,0,1,7,2.63,10.12,10.12,0,0,1,3.48,6.59l-6,1.22A4.56,4.56,0,0,0,284,18.42a4.3,4.3,0,0,0-3.14-1.29,4.34,4.34,0,0,0-3.21,1.33,4.48,4.48,0,0,0-1.31,3.23,4.08,4.08,0,0,0,.7,2.41,3.19,3.19,0,0,0,1.38,1.17,23.27,23.27,0,0,0,3.27,1c1.2.35,2.09.62,2.66.81a22,22,0,0,1,2.15.88,8.79,8.79,0,0,1,2.21,1.4,9,9,0,0,1,1.67,2,11.07,11.07,0,0,1,1.8,6.1,11.28,11.28,0,0,1-19,8.27,11.09,11.09,0,0,1-3.6-7.44l5.84-1.14q1,5.57,5.44,5.57a5.28,5.28,0,0,0,5.26-5.26,5.18,5.18,0,0,0-.83-2.81,3.93,3.93,0,0,0-1.62-1.34A26,26,0,0,0,280,32.18Z"
            transform="translate(-2.18 -11.07)"/>
    </g>
  </g>
</svg>
